<svg xmlns="http://www.w3.org/2000/svg" version="1.1" xmlns:xlink="http://www.w3.org/1999/xlink" xmlns:svgjs="http://svgjs.dev/svgjs" width="1000" height="1000" viewBox="0 0 1000 1000"><rect width="1000" height="1000" fill="#000000"></rect><g transform="matrix(0.7,0,0,0.7,150.0000000000001,106.25)"><svg viewBox="0 0 320 360" data-background-color="#333366" preserveAspectRatio="xMidYMid meet" height="1125" width="1000" xmlns="http://www.w3.org/2000/svg" xmlns:xlink="http://www.w3.org/1999/xlink"><defs></defs><g id="tight-bounds" transform="matrix(1,0,0,1,0,0)"><svg viewBox="0 0 320 360" height="360" width="320"><g><svg></svg></g><g><svg viewBox="0 0 320 360" height="360" width="320"><g><path d="M20.961 227.22l3.726 4.658-1.863-6.056c-0.466-2.795-3.726 0.466-1.863 1.398M25.153 224.425c1.397 2.329 2.795 4.658 2.795 6.987 0 3.261 2.795 4.658 5.123 5.589-3.261-3.726-5.124-13.974-7.918-12.576M204.017 26.929c7.918 0 15.371-0.932 23.756 0.931 20.495 5.124 37.729 15.371 49.374 29.811l32.606 52.169c1.397 13.042 4.192 27.482 3.726 43.319 3.261 0 2.795-4.658 6.521-5.59-3.726 9.316-5.59 20.961-6.521 34.469-2.329-7.453 0-18.632 0.466-24.687-3.261 5.124-5.124 1.397-5.124-0.932 0.466-3.726-1.397-3.261-2.795-4.658-5.124-4.658-8.384-9.782-12.11-17.7 2.329-6.055 2.795-14.905-4.658-19.563-2.329-1.397-5.124-3.726-6.521-7.453-1.863-5.124-5.124-11.179-4.193-19.097 0.466-2.329-6.987 5.124-11.179 1.863-18.166-12.576-36.332-27.016-58.224-39.127-11.645 0-20.029-4.192-24.221-9.316-3.726-4.658-0.932-10.713 4.658-11.179 3.261 0 6.987-0.932 9.782 0.932 0.466-1.863 2.329-4.192 4.657-4.192M157.904 16.215l0.932 0.466c4.658 0.932 6.987 7.453 12.11 5.124 0 3.261 0.466 6.521-0.466 8.85-1.397 3.726-5.59 3.726-8.85 3.726-31.208-1.863-49.374 11.179-68.471 22.358-5.124 3.261-10.713 5.59-14.906 9.782-20.029 18.632-41.921 35.866-47.045 70.335l-4.192 38.195c-0.466 4.192-5.124 8.384-4.192 13.508l3.26 22.824c-3.261-3.261-5.124 0.932-4.192 2.795 0.466 1.397 2.329 6.055 5.124 1.863 3.726 6.987 7.453 20.495 12.576 26.55 15.837 18.632 36.332 35.4 53.101 52.169 4.192-0.932 7.453-0.932 8.384-3.727 1.397 2.795-1.397 5.59-3.726 6.056 7.453 4.658 15.837 8.85 27.016 9.781 14.44 0.932 27.948 3.261 40.524 6.522 6.521-1.863 13.042-2.795 20.029-3.261 2.329 0 3.726-3.726 6.521-4.658l0.466-4.658c2.795 4.192 2.329-1.397 0.466-4.192 3.261 2.795 4.192 5.124 5.589 6.987 0-1.397 3.726-6.521 3.727-0.466l0.931-6.055c1.397-0.932 1.863 5.124 3.261 0.931 1.397-4.192 4.192-0.932 6.987-2.329-0.932 1.863-0.466 5.59 2.794 3.261l3.727-3.261c2.329 5.59 6.055 3.261 7.918 2.329 20.495-13.042 40.99-28.413 60.553-43.784l-0.466 6.055 2.329-7.453c2.329 2.329 4.192 0.466 5.124-0.931 2.795-4.658 6.521-9.316 12.577-13.508-7.453 20.029-16.303 35.866-27.482 48.908l-4.658 5.59c0 3.261-0.932 7.453-4.658 7.918-1.863 0.466-5.59-0.932-8.384 1.863-1.397 1.863 3.261 5.59-0.466 2.795-3.261-2.329-6.521 0-10.248 0.932-2.795 0.932 1.863 3.726 2.795 5.589 0.932 1.863 1.863 3.726 1.398 6.056l-5.124-5.59c-6.055 3.261-9.782 9.316-14.906 13.974-2.329 1.863-1.397 5.124-1.397 7.918-3.261 0-6.987-0.932-8.85 0.932-1.397 1.863-0.932 4.658-0.932 7.453-4.658-0.466-5.124-7.453-9.315-6.056-4.192 0.932-8.85 1.397-12.577 3.727 2.795 5.59-4.658 2.329-3.726 3.26-6.987-4.192-13.042-7.453-20.495-4.658-15.837-5.124-35.4-2.795-49.84-0.931 0-2.329 0.466-4.658-0.466-5.124-0.932 2.329-3.726 1.397-3.26 1.397-8.85-6.055-17.7-9.782-27.016-14.905-8.384 0.932-16.303-3.261-18.632-5.59-6.521-6.055-13.974-2.795-20.029-4.192-13.042-3.261-17.7-16.769-19.098-26.084-0.932-4.658-4.658-6.521-6.055-6.056-6.055-19.563-15.371-37.263-22.824-55.429-1.863-4.658-1.397-9.316-1.397-14.44 2.329 0.932 4.658 0.466 4.192-2.794-2.329-15.371-7.918-27.016-13.974-38.195 3.261-15.837 3.726-34.469 11.179-48.443 6.521-12.576 18.632-19.098 27.016-29.811 2.795-3.726 2.795-8.85 5.59-12.11 9.316-9.316 18.632-19.098 28.879-27.482 4.658-3.726 10.247 0 17.234-1.397 2.329-8.384 11.645-15.837 20.495-13.508 3.726 0.932 11.179-8.85 13.508-9.782 3.726-1.397 1.863 3.726 1.863 6.987 8.85-6.987 20.961-10.713 32.14-14.906" fill="#ffff33" data-fill-palette-color="tertiary"></path></g><g transform="matrix(1,0,0,1,64.00000000000001,171.9912039582188)"><svg viewBox="0 0 191.99999999999997 16.017592083562395" height="16.017592083562395" width="191.99999999999997"><g><svg viewBox="0 0 191.99999999999997 16.017592083562395" height="16.017592083562395" width="191.99999999999997"><g><svg viewBox="0 0 191.99999999999997 16.017592083562395" height="16.017592083562395" width="191.99999999999997"><g><svg viewBox="0 0 191.99999999999997 16.017592083562395" height="16.017592083562395" width="191.99999999999997"><g><svg viewBox="0 0 191.99999999999997 16.017592083562395" height="16.017592083562395" width="191.99999999999997"><g><svg viewBox="0 0 191.99999999999997 16.017592083562395" height="16.017592083562395" width="191.99999999999997"><g transform="matrix(1,0,0,1,0,0)"><svg width="191.99999999999997" viewBox="0.05000000074505806 -29.149999618530273 355.2400207519531 29.639999389648438" height="16.017592083562395" data-palette-color="#ffff33"><path d="M15.23 0.15L13.18 0.15 2.54-26.12 0.05-26.81 0.2-28.66 10.3-28.66 10.4-26.81 7.42-26.12 15.82-4.83 14.84-4.83 22.71-26.12 19.29-26.81 19.43-28.66 28.42-28.66 28.52-26.81 26.07-26.12 15.23 0.15ZM41.35 0L30.95 0 30.86-1.86 33.84-2.54Q33.93-2.78 33.96-3.66 33.98-4.54 34.01-6.05 34.03-7.57 34.03-9.72L34.03-9.72 34.03-18.9Q34.03-21.09 34.01-22.63 33.98-24.17 33.96-25.07 33.93-25.98 33.84-26.12L33.84-26.12 30.86-26.81 30.95-28.66 41.35-28.66 41.45-26.81 38.47-26.12Q38.38-25.98 38.3-25.17 38.23-24.37 38.21-22.85 38.18-21.34 38.18-18.9L38.18-18.9 38.18-9.72Q38.18-7.37 38.21-5.86 38.23-4.35 38.3-3.54 38.38-2.73 38.47-2.54L38.47-2.54 41.45-1.86 41.35 0ZM54.68 0.44L54.68 0.44Q52.53 0.44 50.29-0.1 48.04-0.63 46.58-1.46L46.58-1.46 46.33-7.76 48.43-7.96 49.8-3.61Q50.97-2.83 52.41-2.42 53.85-2 55.41-2L55.41-2Q57.81-2 59.27-3.17 60.74-4.35 60.74-6.35L60.74-6.35Q60.74-8.06 59.71-9.2 58.69-10.35 57.05-11.21 55.41-12.06 53.58-12.87 51.75-13.67 50.14-14.72 48.53-15.77 47.48-17.31 46.43-18.85 46.43-21.14L46.43-21.14Q46.43-23.49 47.77-25.32 49.12-27.15 51.46-28.15 53.8-29.15 56.83-29.15L56.83-29.15Q58.1-29.15 59.3-29.03 60.49-28.91 61.52-28.64 62.54-28.37 63.37-28.03L63.37-28.03 63.76-21.92 61.66-21.73 60.3-25.83Q58.74-26.81 56.29-26.81L56.29-26.81Q53.8-26.81 52.31-25.59 50.83-24.37 50.83-22.41L50.83-22.41Q50.83-20.65 51.87-19.46 52.92-18.26 54.56-17.38 56.2-16.5 58.03-15.7 59.86-14.89 61.49-13.87 63.13-12.84 64.18-11.35 65.23-9.86 65.23-7.67L65.23-7.67Q65.23-5.32 63.86-3.49 62.5-1.66 60.13-0.61 57.76 0.44 54.68 0.44ZM79.88 0L69.47 0 69.38-1.86 72.36-2.54Q72.45-2.78 72.48-3.66 72.5-4.54 72.53-6.05 72.55-7.57 72.55-9.72L72.55-9.72 72.55-18.9Q72.55-21.09 72.53-22.63 72.5-24.17 72.48-25.07 72.45-25.98 72.36-26.12L72.36-26.12 69.38-26.81 69.47-28.66 79.88-28.66 79.97-26.81 76.99-26.12Q76.9-25.98 76.82-25.17 76.75-24.37 76.73-22.85 76.7-21.34 76.7-18.9L76.7-18.9 76.7-9.72Q76.7-7.37 76.73-5.86 76.75-4.35 76.82-3.54 76.9-2.73 76.99-2.54L76.99-2.54 79.97-1.86 79.88 0ZM84.41-1.86L87.39-2.54Q87.49-2.88 87.59-4.83 87.69-6.79 87.69-9.72L87.69-9.72 87.69-18.9Q87.69-22.12 87.59-24.05 87.49-25.98 87.39-26.27L87.39-26.27 84.41-26.76 84.51-28.66 96.13-28.66Q100.87-28.66 103.36-26.9 105.85-25.15 105.85-21.78L105.85-21.78Q105.85-19.09 103.73-17.24 101.6-15.38 98.28-15.14L98.28-15.14 97.7-15.48Q102.38-15.33 104.85-13.45 107.31-11.57 107.31-8.25L107.31-8.25Q107.31-4.49 104.04-2.25 100.77 0 95.16 0L95.16 0 84.51 0 84.41-1.86ZM91.79-20.17L91.79-8.64Q91.79-6.49 91.84-4.76 91.88-3.03 91.93-2.59L91.93-2.59Q92.57-2.49 93.64-2.37 94.72-2.25 95.35-2.25L95.35-2.25Q99.11-2.25 100.99-3.61 102.87-4.98 102.87-7.76L102.87-7.76Q102.87-10.64 100.89-12.08 98.92-13.53 94.96-13.53L94.96-13.53Q93.11-13.53 92.4-13.53 91.69-13.53 91.15-13.43L91.15-13.43 91.15-15.97Q92.08-15.92 92.91-15.89 93.74-15.87 94.72-15.87L94.72-15.87Q97.94-15.87 99.67-17.29 101.41-18.7 101.41-21.29L101.41-21.29Q101.41-23.83 99.79-25.17 98.18-26.51 95.16-26.51L95.16-26.51 91.88-26.51Q91.84-26.17 91.81-24.32 91.79-22.46 91.79-20.17L91.79-20.17ZM134.36-7.23L132.36 0.24Q131.68 0.15 130.82 0.1 129.97 0.05 129.14 0.02 128.31 0 127.62 0L127.62 0 112 0 111.9-1.86 114.88-2.54Q114.93-2.78 114.98-3.64 115.03-4.49 115.05-6.05 115.08-7.62 115.08-9.72L115.08-9.72 115.08-18.9Q115.08-21.09 115.08-22.61 115.08-24.12 115.03-25 114.98-25.88 114.88-26.07L114.88-26.07 111.9-26.81 112-28.66 123.47-28.66 123.62-26.71 119.57-26.07Q119.47-25.93 119.42-25.12 119.37-24.32 119.32-22.78 119.27-21.24 119.27-18.9L119.27-18.9 119.27-9.72Q119.27-7.18 119.32-5.3 119.37-3.42 119.42-2.88L119.42-2.88Q120.1-2.78 120.81-2.76 121.52-2.73 122.5-2.73L122.5-2.73 126.16-2.73Q127.28-2.73 128.06-2.78 128.84-2.83 129.63-2.93L129.63-2.93 132.17-7.71 134.36-7.23ZM160.24-6.88L158.24 0.24Q156.82 0.1 155.72 0.05 154.62 0 153.65 0L153.65 0 136.9 0 136.75-1.86 139.78-2.54Q139.83-2.78 139.88-3.66 139.93-4.54 139.95-6.05 139.98-7.57 139.98-9.72L139.98-9.72 139.98-18.9Q139.98-21.09 139.95-22.63 139.93-24.17 139.88-25.05 139.83-25.93 139.78-26.12L139.78-26.12 136.75-26.81 136.9-28.66 152.57-28.66Q153.26-28.66 154.04-28.66 154.82-28.66 155.67-28.74 156.53-28.81 157.46-28.86L157.46-28.86 158.43-22.41 156.24-22.07 154.62-26.17Q154.23-26.27 153.74-26.29 153.26-26.32 152.72-26.32L152.72-26.32 147.2-26.32Q146.27-26.32 145.57-26.29 144.86-26.27 144.17-26.17L144.17-26.17Q144.17-25.98 144.15-25.07 144.13-24.17 144.1-23 144.08-21.83 144.08-20.65L144.08-20.65 144.08-7.47Q144.08-6.49 144.1-5.49 144.13-4.49 144.15-3.74 144.17-2.98 144.17-2.64L144.17-2.64Q144.91-2.59 145.64-2.54 146.37-2.49 147.3-2.49L147.3-2.49 152.04-2.49Q153.11-2.49 153.79-2.51 154.48-2.54 154.87-2.59 155.26-2.64 155.5-2.69L155.5-2.69 158.04-7.32 160.24-6.88ZM154.92-10.01L152.82-10.01 152.23-13.33Q151.99-13.43 151.4-13.48 150.82-13.53 149.99-13.53L149.99-13.53 146.27-13.53Q145.64-13.53 144.88-13.48 144.13-13.43 143.34-13.38L143.34-13.38 143.34-16.06Q144.13-16.02 144.88-15.99 145.64-15.97 146.27-15.97L146.27-15.97 149.99-15.97Q150.82-15.97 151.4-15.99 151.99-16.02 152.23-16.11L152.23-16.11 152.82-19.48 154.92-19.48 154.92-10.01ZM201.49 0L191 0 190.9-1.86 193.88-2.54Q193.97-2.73 194.05-3.54 194.12-4.35 194.15-5.86 194.17-7.37 194.17-9.72L194.17-9.72 194.17-18.9Q194.17-21.34 194.15-22.85 194.12-24.37 194.05-25.17 193.97-25.98 193.88-26.12L193.88-26.12 190.9-26.81 191-28.66 201.49-28.66 201.64-26.81 198.61-26.12Q198.52-25.98 198.47-25.17 198.42-24.37 198.37-22.85 198.32-21.34 198.32-18.9L198.32-18.9 198.32-9.72Q198.32-7.37 198.37-5.86 198.42-4.35 198.47-3.54 198.52-2.73 198.61-2.54L198.61-2.54 201.64-1.86 201.49 0ZM183.82 0L173.42 0 173.27-1.86 176.3-2.54Q176.4-2.78 176.42-3.66 176.44-4.54 176.47-6.05 176.49-7.57 176.49-9.72L176.49-9.72 176.49-18.9Q176.49-21.09 176.47-22.63 176.44-24.17 176.42-25.07 176.4-25.98 176.3-26.12L176.3-26.12 173.27-26.81 173.42-28.66 183.82-28.66 183.92-26.81 180.94-26.12Q180.84-25.98 180.77-25.17 180.69-24.37 180.67-22.85 180.64-21.34 180.64-18.9L180.64-18.9 180.64-9.72Q180.64-7.37 180.67-5.86 180.69-4.35 180.77-3.54 180.84-2.73 180.94-2.54L180.94-2.54 183.92-1.86 183.82 0ZM180.06-13.28L180.06-13.28 180.06-16.16Q180.99-16.11 182.89-16.06 184.79-16.02 187.48-16.02L187.48-16.02Q190.17-16.02 192-16.06 193.83-16.11 194.71-16.16L194.71-16.16 194.71-13.28Q193.63-13.43 191.92-13.45 190.21-13.48 187.48-13.48L187.48-13.48Q184.65-13.48 182.89-13.45 181.13-13.43 180.06-13.28ZM216.63 0L206.23 0 206.13-1.86 209.11-2.54Q209.21-2.78 209.23-3.66 209.25-4.54 209.28-6.05 209.3-7.57 209.3-9.72L209.3-9.72 209.3-18.9Q209.3-21.09 209.28-22.63 209.25-24.17 209.23-25.07 209.21-25.98 209.11-26.12L209.11-26.12 206.13-26.81 206.23-28.66 216.63-28.66 216.73-26.81 213.75-26.12Q213.65-25.98 213.58-25.17 213.5-24.37 213.48-22.85 213.45-21.34 213.45-18.9L213.45-18.9 213.45-9.72Q213.45-7.37 213.48-5.86 213.5-4.35 213.58-3.54 213.65-2.73 213.75-2.54L213.75-2.54 216.73-1.86 216.63 0ZM229.96 0.44L229.96 0.44Q227.81 0.44 225.56-0.1 223.31-0.63 221.85-1.46L221.85-1.46 221.61-7.76 223.71-7.96 225.07-3.61Q226.24-2.83 227.68-2.42 229.13-2 230.69-2L230.69-2Q233.08-2 234.55-3.17 236.01-4.35 236.01-6.35L236.01-6.35Q236.01-8.06 234.98-9.2 233.96-10.35 232.32-11.21 230.69-12.06 228.86-12.87 227.03-13.67 225.41-14.72 223.8-15.77 222.75-17.31 221.7-18.85 221.7-21.14L221.7-21.14Q221.7-23.49 223.05-25.32 224.39-27.15 226.73-28.15 229.08-29.15 232.1-29.15L232.1-29.15Q233.37-29.15 234.57-29.03 235.77-28.91 236.79-28.64 237.82-28.37 238.65-28.03L238.65-28.03 239.04-21.92 236.94-21.73 235.57-25.83Q234.01-26.81 231.57-26.81L231.57-26.81Q229.08-26.81 227.59-25.59 226.1-24.37 226.1-22.41L226.1-22.41Q226.1-20.65 227.15-19.46 228.2-18.26 229.83-17.38 231.47-16.5 233.3-15.7 235.13-14.89 236.77-13.87 238.4-12.84 239.45-11.35 240.5-9.86 240.5-7.67L240.5-7.67Q240.5-5.32 239.14-3.49 237.77-1.66 235.4-0.61 233.03 0.44 229.96 0.44ZM267.4-28.86L267.4-28.86 268.48-20.95 266.33-20.7 264.28-26.22Q263.89-26.32 263.38-26.34 262.86-26.37 262.47-26.37L262.47-26.37 260.71-26.37Q260.23-26.37 259.4-26.37 258.57-26.37 257.88-26.32L257.88-26.32Q257.88-25.93 257.86-24.49 257.83-23.05 257.83-21.14 257.83-19.24 257.83-17.48L257.83-17.48 257.83-10.89Q257.83-7.81 257.88-5.54 257.93-3.27 257.93-2.54L257.93-2.54 262.08-1.95 261.94 0 249.48 0 249.39-1.95 253.49-2.54Q253.49-3.27 253.54-5.54 253.59-7.81 253.59-10.89L253.59-10.89 253.59-17.48Q253.59-19.24 253.59-21.14 253.59-23.05 253.59-24.49 253.59-25.93 253.54-26.32L253.54-26.32Q252.9-26.37 252.07-26.37 251.24-26.37 250.75-26.37L250.75-26.37 248.85-26.37Q248.46-26.37 247.99-26.34 247.53-26.32 247.09-26.22L247.09-26.22 245.09-20.65 242.89-20.95 243.97-28.86Q244.5-28.81 245.11-28.78 245.72-28.76 246.33-28.71 246.95-28.66 247.53-28.66 248.12-28.66 248.7-28.66L248.7-28.66 262.67-28.66Q263.2-28.66 263.82-28.66 264.43-28.66 265.01-28.71 265.6-28.76 266.21-28.78 266.82-28.81 267.4-28.86ZM285.86 0.44L285.86 0.44Q281.61 0.44 278.31-1.42 275.02-3.27 273.16-6.59 271.31-9.91 271.31-14.21L271.31-14.21Q271.31-18.51 273.19-21.88 275.07-25.24 278.41-27.17 281.76-29.1 285.96-29.1L285.96-29.1Q290.06-29.1 293.18-27.25 296.31-25.39 298.09-22.12 299.87-18.85 299.87-14.55L299.87-14.55Q299.87-11.28 298.75-8.54 297.63-5.81 295.67-3.78 293.72-1.76 291.21-0.66 288.69 0.44 285.86 0.44ZM286.3-2.2L286.3-2.2Q288.98-2.2 290.91-3.56 292.84-4.93 293.89-7.45 294.94-9.96 294.94-13.38L294.94-13.38Q294.94-17.33 293.72-20.31 292.5-23.29 290.38-24.98 288.25-26.66 285.37-26.66L285.37-26.66Q281.22-26.66 278.8-23.56 276.39-20.46 276.39-15.14L276.39-15.14Q276.39-11.33 277.66-8.42 278.93-5.52 281.17-3.86 283.42-2.2 286.3-2.2ZM314.91 0L304.85 0 304.75-1.86 307.73-2.59Q307.73-2.93 307.76-3.64 307.78-4.35 307.78-5.32 307.78-6.3 307.8-7.45 307.83-8.59 307.83-9.72L307.83-9.72 307.83-18.9Q307.83-21.14 307.8-22.68 307.78-24.22 307.73-25.07 307.68-25.93 307.63-26.12L307.63-26.12 304.61-26.81 304.75-28.66 315.45-28.66Q320.04-28.66 322.45-26.88 324.87-25.1 324.87-21.63L324.87-21.63Q324.87-19.24 323.55-17.36 322.23-15.48 319.86-14.4 317.5-13.33 314.47-13.33L314.47-13.33 311.34-13.33 311.34-15.53 314.13-15.53Q317.16-15.53 318.84-17.04 320.52-18.55 320.52-21.24L320.52-21.24Q320.52-23.83 319.06-25.17 317.59-26.51 314.86-26.51L314.86-26.51 312.03-26.51Q311.98-26.42 311.95-26.12 311.93-25.83 311.93-25.15 311.93-24.46 311.93-23.14 311.93-21.83 311.93-19.63L311.93-19.63 311.93-9.72Q311.93-7.62 311.95-6.2 311.98-4.79 312.05-3.93 312.13-3.08 312.17-2.59L312.17-2.59 315.06-1.86 314.91 0ZM327.99 0.49L327.99 0.49Q325.85 0.49 324.19-0.32 322.53-1.12 320.99-3.03 319.45-4.93 317.59-8.11L317.59-8.11 314.27-14.16 317.94-14.99 323.21-7.23Q324.58-5.22 325.68-4.03 326.77-2.83 327.85-2.25 328.92-1.66 330.19-1.42L330.19-1.42 330.14 0.29Q329.66 0.39 329.09 0.44 328.53 0.49 327.99 0.49ZM355.29-26.81L352.85-26.12 342.84-10.64 344.06-13.96 344.06-9.33Q344.06-7.47 344.08-6.23 344.11-4.98 344.13-4.22 344.15-3.47 344.2-3.08 344.25-2.69 344.25-2.54L344.25-2.54 347.67-1.9 347.57 0 336.44 0 336.29-1.9 339.71-2.54Q339.76-2.69 339.81-3.08 339.86-3.47 339.88-4.22 339.91-4.98 339.93-6.23 339.96-7.47 339.96-9.33L339.96-9.33 339.96-13.96 340.93-10.64 331.26-26.12 328.82-26.81 328.92-28.66 339.03-28.66 339.17-26.81 336.2-26.12 343.37-14.6 342.69-14.6 349.57-26.12 346.16-26.81 346.3-28.66 355.19-28.66 355.29-26.81Z" opacity="1" transform="matrix(1,0,0,1,0,0)" fill="#ffffff" class="undefined-text-0" data-fill-palette-color="primary" id="text-0"></path></svg></g></svg></g></svg></g></svg></g><g></g></svg></g></svg></g></svg></g></svg></g></svg><rect width="320" height="360" fill="none" stroke="none" visibility="hidden"></rect></g></svg></g></svg>